HIERARCHY
ROOT hip
{
	OFFSET 0.000000 0.000000 0.000000
	CHANNELS 6 Xposition Yposition Zposition Xrotation Zrotation Yrotation 
	JOINT abdomen
	{
		OFFSET 0.000000 3.422050 0.000000
		CHANNELS 3 Xrotation Zrotation Yrotation 
		JOINT chest
		{
			OFFSET 0.000000 8.486693 -0.684411
			CHANNELS 3 Xrotation Zrotation Yrotation 
			JOINT neck
			{
				OFFSET 0.000000 10.266162 -0.273764
				CHANNELS 3 Xrotation Zrotation Yrotation 
				JOINT head
				{
					OFFSET 0.000000 3.148285 0.000000
					CHANNELS 3 Xrotation Zrotation Yrotation 
					End Site
					{
						OFFSET 0.000000 3.148289 0.000000
					}
				}
			}
			JOINT lCollar
			{
				OFFSET 3.422053 6.707223 -0.821293
				CHANNELS 3 Yrotation Zrotation Xrotation 
				JOINT lShldr
				{
					OFFSET 3.285171 0.000000 0.000000
					CHANNELS 3 Zrotation Yrotation Xrotation 
					JOINT lForeArm
					{
						OFFSET 10.129278 0.000000 0.000000
						CHANNELS 3 Yrotation Zrotation Xrotation 
						JOINT lHand
						{
							OFFSET 8.486692 0.000000 0.000000
							CHANNELS 3 Zrotation Yrotation Xrotation 
							End Site
							{
								OFFSET 4.106464 0.000000 0.000000
							}
						}
					}
				}
			}
			JOINT rCollar
			{
				OFFSET -3.558935 6.707223 -0.821293
				CHANNELS 3 Yrotation Zrotation Xrotation 
				JOINT rShldr
				{
					OFFSET -3.148289 0.000000 0.000000
					CHANNELS 3 Zrotation Yrotation Xrotation 
					JOINT rForeArm
					{
						OFFSET -10.266159 0.000000 0.000000
						CHANNELS 3 Yrotation Zrotation Xrotation 
						JOINT rHand
						{
							OFFSET -8.349810 0.000000 0.000000
							CHANNELS 3 Zrotation Yrotation Xrotation 
							End Site
							{
								OFFSET -4.106464 0.000000 0.000000
							}
						}
					}
				}
			}
		}
	}
	JOINT lThigh
	{
		OFFSET 5.338403 -1.642589 1.368821
		CHANNELS 3 Xrotation Zrotation Yrotation 
		JOINT lShin
		{
			OFFSET -2.053232 -20.121670 0.000000
			CHANNELS 3 Xrotation Zrotation Yrotation 
			JOINT lFoot
			{
				OFFSET 0.000000 -19.300380 -1.231939
				CHANNELS 3 Xrotation Yrotation Zrotation 
				End Site
				{
					OFFSET 0.000000 -2.463878 4.653993
				}
			}
		}
	}
	JOINT rThigh
	{
		OFFSET -5.338403 -1.642589 1.368821
		CHANNELS 3 Xrotation Zrotation Yrotation 
		JOINT rShin
		{
			OFFSET 2.053232 -20.121670 0.000000
			CHANNELS 3 Xrotation Zrotation Yrotation 
			JOINT rFoot
			{
				OFFSET 0.000000 -19.300380 -1.231939
				CHANNELS 3 Xrotation Yrotation Zrotation 
				End Site
				{
					OFFSET 0.000000 -2.463878 4.653993
				}
			}
		}
	}
}
MOTION
Frames: 13
Frame Time: 0.033264
0.000000 43.528500 0.000000 0.000000 0.000000 0.000000 0.000000 0.000000 0.000000 0.000000 0.000000 0.000000 0.000000 0.000000 0.000000 0.000000 0.000000 0.000000 0.000000 0.000000 0.000000 0.000000 0.000000 0.000000 0.000000 0.000000 0.000000 0.000000 0.000000 0.000000 0.000000 0.000000 0.000000 0.000000 0.000000 0.000000 0.000000 0.000000 0.000000 0.000000 0.000000 0.000000 0.000000 0.000000 0.000000 0.000000 0.000000 0.000000 0.000000 0.000000 0.000000 0.000000 0.000000 0.000000 0.000000 0.000000 0.000000 0.000000 0.000000 0.000000 
19.995882 10.922924 17.148346 70.997055 0.000000 0.000000 51.485352 -0.723925 -0.580074 -32.433472 -0.627813 -0.449299 -24.006269 0.000000 0.000000 -22.342703 -0.055549 -0.001506 -0.001347 -8.002656 -0.194655 -60.741528 -62.002594 -20.447052 -122.018135 -0.008075 53.997295 -7.000333 -0.003134 7.199666 -0.002182 7.999156 -0.194408 60.731537 61.998016 -20.454638 121.995705 -0.005257 54.000729 6.996620 -0.000135 7.199450 -114.453232 57.080845 -36.694439 132.438538 -2.368854 -0.184923 17.525476 1.718366 4.884031 -114.462746 -57.084763 36.701576 132.438522 2.370645 0.180300 17.525291 -1.722353 -4.886950 
19.995882 10.922924 17.110298 70.997055 0.000000 0.000000 51.485352 -0.723925 -0.580074 -32.044750 -0.627785 -0.449440 -24.561331 0.000000 0.000000 -22.675966 -0.055595 -0.001535 0.399910 -7.814959 -0.767911 -61.214062 -62.068108 -20.002754 -122.018135 -0.008075 53.997295 -7.016244 0.310753 6.908892 -0.421997 7.834544 -0.776482 61.209778 62.059223 -20.003956 121.995705 -0.005256 54.000729 7.025563 -0.304981 6.897753 -114.836807 57.126690 -36.971237 132.438538 -2.368854 -0.184923 17.569685 1.689351 5.068342 -114.849617 -57.130390 37.030125 132.438522 2.370645 0.180300 17.589401 -1.633264 -5.087697 
19.995882 10.922924 17.072252 70.997055 0.000000 0.000000 51.485352 -0.723925 -0.580074 -31.655956 -0.627756 -0.449581 -25.116604 0.000000 0.000000 -23.009270 -0.055642 -0.001564 0.803155 -7.631119 -1.342641 -61.688713 -62.131908 -19.556351 -122.018135 -0.008074 53.997299 -7.033751 0.624625 6.617952 -0.843629 7.674051 -1.359967 61.690010 62.118652 -19.551264 121.995705 -0.005259 54.000729 7.056117 -0.609738 6.595819 -115.221321 57.171543 -37.248970 132.438538 -2.368854 -0.184923 17.613983 1.660477 5.252679 -115.237503 -57.174839 37.359669 132.438522 2.370645 0.180300 17.653826 -1.544394 -5.288548 
19.995882 10.922924 17.034206 70.997055 0.000000 0.000000 51.485355 -0.723925 -0.580074 -31.267111 -0.627726 -0.449721 -25.672056 0.000000 0.000000 -23.342617 -0.055688 -0.001592 1.208327 -7.451193 -1.918783 -62.165432 -62.193962 -19.107853 -122.018135 -0.008074 53.997299 -7.052859 0.938466 6.326839 -1.267010 7.517722 -1.944796 62.172180 62.176285 -19.096615 121.995705 -0.005257 54.000729 7.088287 -0.914391 6.293644 -115.606689 57.215378 -37.527603 132.438538 -2.368854 -0.184923 17.658371 1.631743 5.437042 -115.626305 -57.218048 37.690147 132.438522 2.370645 0.180300 17.718559 -1.455745 -5.489501 
19.995882 10.922924 16.996159 70.997047 0.000000 0.000000 51.485352 -0.723925 -0.580074 -30.878197 -0.627696 -0.449862 -26.227676 0.000000 0.000000 -23.675995 -0.055735 -0.001621 1.615359 -7.275220 -2.496274 -62.644161 -62.254292 -18.657354 -122.018135 -0.008077 53.997292 -7.073567 1.252258 6.035541 -1.692067 7.365606 -2.530895 62.656223 62.232128 -18.640074 121.995689 -0.005257 54.000725 7.122072 -1.218920 5.991217 -115.992928 57.258205 -37.807110 132.438538 -2.368853 -0.184923 17.702860 1.603153 5.621433 -116.016022 -57.260044 38.021564 132.438522 2.370645 0.180300 17.783602 -1.367319 -5.690555 
19.995882 10.922924 16.958111 70.997055 0.000000 0.000000 51.485352 -0.723925 -0.580074 -30.489244 -0.627664 -0.450002 -26.783415 0.000000 0.000000 -24.009403 -0.055782 -0.001649 2.024186 -7.103253 -3.075050 -63.124882 -62.312862 -18.204863 -122.018135 -0.008077 53.997295 -7.095877 1.565985 5.744051 -2.118727 7.217743 -3.118194 63.142136 62.286171 -18.181669 121.995705 -0.005257 54.000729 7.157475 -1.523311 5.688528 -116.379990 57.299995 -38.087463 132.438538 -2.368854 -0.184923 17.747435 1.574704 5.805848 -116.406639 -57.300819 38.353878 132.438522 2.370645 0.180300 17.848953 -1.279118 -5.891711 
19.995882 10.922924 16.920065 70.997055 0.000000 0.000000 51.485352 -0.723925 -0.580074 -30.100248 -0.627631 -0.450142 -27.339268 0.000000 0.000000 -24.342836 -0.055829 -0.001676 2.434742 -6.935338 -3.655046 -63.607498 -62.369640 -17.750441 -122.018135 -0.008075 53.997295 -7.119790 1.879629 5.452357 -2.546917 7.074178 -3.706619 63.629852 62.338406 -17.721468 121.995705 -0.005257 54.000729 7.194495 -1.827544 5.385571 -116.767891 57.340790 -38.368679 132.438538 -2.368854 -0.184923 17.792107 1.546398 5.990287 -116.798134 -57.340382 38.687084 132.438522 2.370645 0.180300 17.914616 -1.191144 -6.092967 
19.995882 10.922924 16.882019 70.997055 0.000000 0.000000 51.485352 -0.723925 -0.580074 -29.711241 -0.627597 -0.450282 -27.895191 0.000000 0.000000 -24.676281 -0.055877 -0.001704 2.846957 -6.771513 -4.236193 -64.092003 -62.424637 -17.294134 -122.018135 -0.008075 53.997295 -7.145307 2.193174 5.160450 -2.976559 6.934947 -4.296095 64.119286 62.388821 -17.259531 121.995705 -0.005257 54.000729 7.233137 -2.131603 5.082336 -117.156586 57.380524 -38.650696 132.438538 -2.368854 -0.184923 17.836866 1.518236 6.174748 -117.190491 -57.378727 39.021149 132.438522 2.370645 0.180300 17.980589 -1.103400 -6.294322 
19.995882 10.922924 16.843971 70.997055 0.000000 0.000000 51.485355 -0.723925 -0.580074 -29.322201 -0.627563 -0.450421 -28.451166 0.000000 0.000000 -25.009735 -0.055924 -0.001731 3.260761 -6.611824 -4.818425 -64.578300 -62.477852 -16.836025 -122.018150 -0.008077 53.997299 -7.172429 2.506602 4.868323 -3.407579 6.800091 -4.886547 64.610382 62.437374 -16.795904 121.995705 -0.005257 54.000729 7.273395 -2.435470 4.778813 -117.546066 57.419243 -38.933525 132.438538 -2.368854 -0.184923 17.881714 1.490217 6.359230 -117.583633 -57.415802 39.356037 132.438522 2.370645 0.180300 18.046865 -1.015887 -6.495777 
19.995882 10.922924 16.805923 70.997055 0.000000 0.000000 51.485352 -0.723925 -0.580074 -28.933159 -0.627527 -0.450561 -29.007179 0.000000 0.000000 -25.343203 -0.055972 -0.001758 3.676085 -6.456309 -5.401670 -65.066391 -62.529270 -16.376133 -122.018135 -0.008075 53.997299 -7.201159 2.819897 4.575965 -3.839896 6.669641 -5.477896 65.103134 62.484123 -16.330658 121.995705 -0.005257 54.000729 7.315279 -2.739129 4.474997 -117.936287 57.456924 -39.217121 132.438538 -2.368854 -0.184923 17.926659 1.462344 6.543736 -117.977585 -57.451660 39.691727 132.438522 2.370645 0.180300 18.113453 -0.928606 -6.697330 
19.995882 10.922924 16.767878 70.997055 0.000000 0.000000 51.485344 -0.723925 -0.580074 -28.544111 -0.627491 -0.450700 -29.563183 0.000000 0.000000 -25.676668 -0.056020 -0.001784 4.092856 -6.305007 -5.985863 -65.556190 -62.578884 -15.914529 -122.018135 -0.008075 53.997295 -7.231498 3.133041 4.283365 -4.273436 6.543634 -6.070067 65.597473 62.529018 -15.863838 121.995705 -0.005254 54.000721 7.358786 -3.042562 4.170877 -118.327263 57.493561 -39.501495 132.438538 -2.368853 -0.184923 17.971687 1.434614 6.728260 -118.372292 -57.486267 40.028183 132.438507 2.370644 0.180300 18.180340 -0.841560 -6.898977 
19.995882 10.922924 16.729832 70.997055 0.000000 0.000000 51.485344 -0.723925 -0.580074 -28.155083 -0.627453 -0.450839 -30.119158 0.000000 0.000000 -26.010130 -0.056068 -0.001811 4.511000 -6.157951 -6.570925 -66.047653 -62.626667 -15.451266 -122.018135 -0.008077 53.997295 -7.263445 3.446017 3.990516 -4.708114 6.422098 -6.662980 66.093254 62.572014 -15.395508 121.995689 -0.005259 54.000725 7.403913 -3.345749 3.866443 -118.718964 57.529140 -39.786594 132.438538 -2.368854 -0.184923 18.016806 1.407030 6.912800 -118.767746 -57.519627 40.365395 132.438522 2.370645 0.180300 18.247540 -0.754751 -7.100722 
